<svg width="93" height="118" viewBox="0 0 93 118" fill="none" xmlns="http://www.w3.org/2000/svg">
<g id="Group 30">
<g id="Group">
<path id="Vector" d="M26.6749 74.9549H16.1194V78.3369H26.6749V74.9549Z" fill="#002366"/>
<path id="Vector_2" d="M70.352 44.7032C59.551 44.7032 50.7593 34.6712 50.7593 22.3464C50.7593 10.0217 59.551 0 70.352 0C81.153 0 89.9447 10.032 89.9447 22.3568C89.9447 34.6816 81.153 44.7136 70.352 44.7136M70.352 3.39243C61.1875 3.39243 53.7323 11.8994 53.7323 22.3568C53.7323 32.8142 61.1875 41.3212 70.352 41.3212C79.5165 41.3212 86.9717 32.8142 86.9717 22.3568C86.9717 11.8994 79.5165 3.39243 70.352 3.39243Z" fill="#002366"/>
<path id="Vector_3" d="M1.34558 35.0342L0 31.9945L41.0674 9.67923L42.413 12.7189L1.34558 35.0342Z" fill="#002366"/>
<path id="Vector_4" d="M41.74 38.2193H0.672607V41.6013H41.74V38.2193Z" fill="#002366"/>
<path id="Vector_5" d="M41.74 4.33646H0.672607V7.71851H41.74V4.33646Z" fill="#002366"/>
<path id="Vector_6" d="M39.9761 64.2693L39.5397 63.8336C37.3759 61.6653 30.8389 55.1191 21.3926 55.3577C11.7008 55.6378 5.23653 61.6342 2.90904 64.1967L0.845215 61.7587C3.42727 58.9161 10.5825 52.2869 21.3198 51.9757C31.9481 51.6437 39.1215 58.9161 41.5035 61.2919L41.9036 61.6861L39.9852 64.2693H39.9761Z" fill="#002366"/>
<path id="Vector_7" d="M3.35502 67.2365H0.391113V92.2284H3.35502V67.2365Z" fill="#002366"/>
<path id="Vector_8" d="M42.4129 67.2365H39.449V92.2284H42.4129V67.2365Z" fill="#002366"/>
<path id="Vector_9" d="M53.6231 67.4232H50.6592V92.0416H53.6231V67.4232Z" fill="#002366"/>
<path id="Vector_10" d="M91.0807 64.5909L90.6352 64.1448C88.4259 61.935 81.7162 55.1813 72.0698 55.4822C62.1598 55.7727 55.541 61.9039 53.1681 64.5183L51.1042 62.0803C53.7318 59.1858 61.0415 52.4114 71.9971 52.0897C82.8072 51.7785 90.1624 59.1651 92.5899 61.5927L92.999 61.9973L91.0807 64.5805V64.5909Z" fill="#002366"/>
<path id="Vector_11" d="M74.3514 70.2821L72.2556 72.6736L89.1185 91.9154L91.2143 89.5239L74.3514 70.2821Z" fill="#002366"/>
</g>
<g id="Group_2">
<path id="Vector_12" d="M0.518311 104.19H5.09146C5.69152 104.19 6.2643 104.252 6.80071 104.387C7.33712 104.522 7.80989 104.74 8.21902 105.051C8.62815 105.362 8.94636 105.777 9.18275 106.306C9.41914 106.835 9.53733 107.489 9.53733 108.277C9.53733 109.232 9.31913 110.041 8.88272 110.705C8.44632 111.369 7.81899 111.794 6.98254 111.971L9.98282 117.666H6.86435L4.3914 112.282H3.10946V117.666H0.518311V104.18V104.19ZM3.11855 109.771H4.65506C4.89144 109.771 5.13692 109.771 5.40058 109.74C5.66424 109.709 5.90063 109.668 6.10974 109.564C6.31885 109.471 6.49159 109.315 6.63706 109.118C6.77343 108.91 6.84617 108.63 6.84617 108.257C6.84617 107.914 6.78253 107.645 6.66433 107.437C6.54614 107.23 6.38249 107.074 6.20065 106.97C6.00973 106.867 5.79153 106.794 5.54605 106.752C5.30057 106.711 5.06419 106.701 4.8278 106.701H3.12764V109.771H3.11855Z" fill="#002366"/>
<path id="Vector_13" d="M11.4292 104.19H19.4572V106.929H14.0294V109.439H19.1572V112.178H14.0294V114.917H19.7572V117.656H11.4292V104.169V104.19Z" fill="#002366"/>
<path id="Vector_14" d="M27.6847 107.48C27.4756 107.18 27.1846 106.951 26.821 106.806C26.4573 106.661 26.1209 106.588 25.7936 106.588C25.6027 106.588 25.4117 106.609 25.2117 106.661C25.0117 106.713 24.8208 106.796 24.648 106.899C24.4662 107.003 24.3207 107.148 24.2116 107.325C24.1025 107.501 24.048 107.719 24.048 107.968C24.048 108.373 24.1844 108.684 24.448 108.902C24.7117 109.12 25.0481 109.306 25.4572 109.452C25.8663 109.607 26.3027 109.752 26.7664 109.908C27.2301 110.064 27.6665 110.281 28.0756 110.551C28.4848 110.831 28.8212 111.205 29.0848 111.672C29.3485 112.138 29.4848 112.771 29.4848 113.56C29.4848 114.348 29.3667 114.96 29.1212 115.521C28.8757 116.081 28.5484 116.548 28.1302 116.911C27.712 117.274 27.2301 117.554 26.6755 117.73C26.1209 117.907 25.539 118 24.9299 118C24.1662 118 23.4479 117.865 22.7933 117.595C22.1387 117.326 21.5296 116.9 20.9568 116.299L22.8115 113.975C23.0752 114.379 23.4116 114.691 23.8207 114.919C24.2298 115.137 24.648 115.251 25.0844 115.251C25.2936 115.251 25.5118 115.22 25.73 115.168C25.9482 115.116 26.1391 115.023 26.3118 114.908C26.4846 114.794 26.6209 114.649 26.73 114.473C26.8391 114.296 26.8846 114.089 26.8846 113.84C26.8846 113.435 26.7482 113.114 26.4755 112.875C26.2027 112.636 25.8572 112.439 25.4481 112.273C25.039 112.107 24.5935 111.941 24.1116 111.775C23.6298 111.609 23.1843 111.392 22.7751 111.111C22.366 110.831 22.0205 110.468 21.7478 110.012C21.475 109.555 21.3386 108.954 21.3386 108.207C21.3386 107.46 21.4659 106.848 21.7114 106.298C21.966 105.748 22.2933 105.291 22.7115 104.928C23.1297 104.565 23.6116 104.285 24.1571 104.098C24.7026 103.912 25.2663 103.818 25.8391 103.818C26.5028 103.818 27.1483 103.922 27.7756 104.14C28.4029 104.358 28.9575 104.721 29.4576 105.229L27.6756 107.46L27.6847 107.48Z" fill="#002366"/>
<path id="Vector_15" d="M31.3853 104.19H33.9855V117.677H31.3853V104.19Z" fill="#002366"/>
<path id="Vector_16" d="M36.3584 104.19H40.2679C41.2134 104.19 42.1135 104.314 42.959 104.553C43.8136 104.792 44.5501 105.186 45.1865 105.725C45.8229 106.265 46.323 106.97 46.6957 107.831C47.0685 108.692 47.2594 109.74 47.2594 110.975C47.2594 112.064 47.0776 113.029 46.7139 113.859C46.3502 114.689 45.8684 115.394 45.2501 115.955C44.641 116.515 43.9318 116.951 43.1317 117.241C42.3317 117.531 41.4861 117.677 40.6133 117.677H36.3584V104.19ZM38.9586 114.927H40.3133C40.9134 114.927 41.4771 114.855 41.9862 114.72C42.5044 114.585 42.9499 114.347 43.3318 114.025C43.7136 113.703 44.0046 113.278 44.2228 112.749C44.441 112.22 44.5501 111.577 44.5501 110.819C44.5501 110.155 44.441 109.585 44.2228 109.097C44.0046 108.609 43.7136 108.205 43.35 107.883C42.9863 107.562 42.5499 107.323 42.0589 107.167C41.568 107.012 41.0406 106.929 40.4951 106.929H38.9586V114.927Z" fill="#002366"/>
<path id="Vector_17" d="M49.1321 104.19H57.1601V106.929H51.7323V109.439H56.8601V112.178H51.7323V114.917H57.4601V117.656H49.1321V104.169V104.19Z" fill="#002366"/>
<path id="Vector_18" d="M59.5425 104.19H63.0792L68.1069 113.558H68.1433V104.19H70.7435V117.677H67.3432L62.1882 108.08H62.1518V117.677H59.5516V104.19H59.5425Z" fill="#002366"/>
<path id="Vector_19" d="M80.8712 107.686C80.6166 107.333 80.2984 107.053 79.9256 106.867C79.5529 106.68 79.1256 106.576 78.6346 106.576C78.1437 106.576 77.6891 106.68 77.2709 106.898C76.8526 107.116 76.489 107.416 76.1889 107.8C75.8798 108.184 75.6434 108.651 75.4707 109.18C75.2979 109.709 75.2161 110.29 75.2161 110.913C75.2161 111.535 75.2979 112.126 75.4707 112.655C75.6434 113.185 75.8798 113.641 76.1798 114.025C76.4799 114.409 76.8344 114.71 77.2436 114.927C77.6527 115.145 78.0891 115.249 78.5528 115.249C79.0892 115.249 79.562 115.125 79.9711 114.865C80.3802 114.616 80.7257 114.253 80.9894 113.797L83.1623 115.643C82.6623 116.442 82.0258 117.033 81.2621 117.417C80.4984 117.801 79.7074 117.988 78.8892 117.988C77.9618 117.988 77.1163 117.822 76.3344 117.49C75.5525 117.158 74.8797 116.691 74.316 116.069C73.7523 115.457 73.3068 114.71 72.9886 113.828C72.6704 112.956 72.5159 111.971 72.5159 110.892C72.5159 109.813 72.6704 108.838 72.9886 107.956C73.3068 107.084 73.7433 106.337 74.316 105.715C74.8797 105.103 75.5525 104.626 76.3344 104.294C77.1163 103.962 77.9618 103.796 78.8892 103.796C79.2256 103.796 79.5711 103.827 79.9347 103.899C80.2984 103.972 80.653 104.076 80.9985 104.231C81.353 104.387 81.6894 104.584 82.0077 104.844C82.3259 105.103 82.6168 105.404 82.8714 105.777L80.8712 107.645V107.686Z" fill="#002366"/>
<path id="Vector_20" d="M84.6719 104.19H92.6999V106.929H87.2721V109.439H92.3999V112.178H87.2721V114.917H92.9999V117.656H84.6719V104.169V104.19Z" fill="#002366"/>
</g>
</g>
</svg>
